/* XPM */
static char *_5f5cf59378c42ddecb7af9156ba852671qDsmmPTjehuKYl[] = {
/* columns rows colors chars-per-pixel */
"32 32 88 1 ",
"  c None",
". c #E91D21",
"X c #EA1D23",
"o c #E91E23",
"O c #EA1E22",
"+ c #EB1E22",
"@ c #EA1F22",
"# c #EB1F22",
"$ c #EA1E23",
"% c #EB1E23",
"& c #EA1F23",
"* c #EB1F23",
"= c #CB3A24",
"- c #D53223",
"; c #E22723",
": c #E42422",
"> c #E42523",
", c #EA2023",
"< c #EB2024",
"1 c #EB2125",
"2 c #EB2225",
"3 c #EC262A",
"4 c #EC282C",
"5 c #EC292D",
"6 c #EC2A2E",
"7 c #EC2B2F",
"8 c #ED2D31",
"9 c #EC2F32",
"0 c #ED3235",
"q c #ED3236",
"w c #ED3337",
"e c #ED3438",
"r c #ED3538",
"t c #ED373B",
"y c #ED393D",
"u c #EE393D",
"i c #9D5F23",
"p c #9E5D25",
"a c #9C5E24",
"s c #9D5E24",
"d c #9D5F24",
"f c #9D5E25",
"g c #9D5F25",
"h c #9E5E24",
"j c #9E5F24",
"k c #9E5E25",
"l c #9E5F25",
"z c #BF4424",
"x c #B54C25",
"c c #AE5225",
"v c #A95424",
"b c #AA5524",
"n c #A55924",
"m c #A65925",
"M c #A05C25",
"N c #EF4A4E",
"B c #F05053",
"V c #F05154",
"C c #F05559",
"Z c #F0585B",
"A c #F26467",
"S c #F2686B",
"D c #F37275",
"F c #F37779",
"G c #F5888A",
"H c #F58D8F",
"J c #F59091",
"K c #F69092",
"L c #F69194",
"P c #F69497",
"I c #F69799",
"U c #F6999B",
"Y c #F69C9E",
"T c #F69EA0",
"R c #F7A5A6",
"E c #F7A8AA",
"W c #F9C3C3",
"Q c #FAC8C9",
"! c #FBD0D1",
"~ c #FCD5D6",
"^ c #FCD9DA",
"/ c #FDE2E3",
"( c #FEEFEF",
") c #FEF1F2",
"_ c #FEF6F6",
"` c #FEFCFC",
"' c #FFFEFE",
"] c white",
/* pixels */
"                                ",
"                       dddp     ",
"                       Mddldd   ",
"                       ddllld   ",
"                  dllldllllld   ",
"                  ddllldlllll   ",
"              ddddMddlldlpddd   ",
"              ddlld  dlp        ",
"             pdddpd  dld        ",
"           pjp       dld        ",
"           ppp       dld        ",
"          dpjp    dldpdM        ",
"         vpM      ddd           ",
"      **.-z=*,.   dld           ",
"     .**<*******ldd             ",
"    ..<*<******.mll             ",
"   *************cdM             ",
"   *************xmv>..          ",
"   ***.*********:;;<***         ",
"   *5LPu********<<<<***.        ",
"   *q_`B****************        ",
"   *8WQSNu**************        ",
"   **50!)Y<<***.********        ",
"     .3^'R<<CFV2********        ",
"     .<ADV<*E'T2********        ",
"      *<****I/Ute<******        ",
"           <5qH/~q******        ",
"            ,*K')e*****.        ",
"            ..ZKG5*****         ",
"             .********          ",
"              ********          ",
"                                "
};
