/* XPM */
static char *a79e4bc803fc4982dfed6fb7e84f822fhtulSPLf9Y4u1Glm[] = {
/* columns rows colors chars-per-pixel */
"64 64 130 2 ",
"   c None",
".  c #EB1F23",
"X  c #DE2B24",
"o  c #DC2C24",
"O  c #CE3724",
"+  c #CF3724",
"@  c #C73D24",
"#  c #C63E24",
"$  c #C83D24",
"%  c #D53124",
"&  c #D63124",
"*  c #D53224",
"=  c #D43324",
"-  c #E72323",
";  c #E12723",
":  c #E62423",
">  c #EA2023",
",  c #EB2024",
"<  c #EB2125",
"1  c #EB2226",
"2  c #EB2327",
"3  c #EB2427",
"4  c #E02923",
"5  c #EB2428",
"6  c #EC2428",
"7  c #EC2529",
"8  c #ED2529",
"9  c #EC272B",
"0  c #EC282C",
"q  c #ED292D",
"w  c #EC2A2E",
"e  c #EC2B2E",
"r  c #ED2D31",
"t  c #ED2E32",
"y  c #ED3438",
"u  c #ED373A",
"i  c #ED373B",
"p  c #EE3A3E",
"a  c #EF3B3E",
"s  c #EE3B3F",
"d  c #9E5F25",
"f  c #B94924",
"g  c #A75725",
"h  c #A95525",
"j  c #AB5525",
"k  c #A95725",
"l  c #AC5425",
"z  c #A75825",
"x  c #A55A25",
"c  c #A05D25",
"v  c #B15025",
"b  c #C24124",
"n  c #C34224",
"m  c #EE3C40",
"M  c #EE3E41",
"N  c #EF3F42",
"B  c #EE4043",
"V  c #EE4044",
"C  c #EE4144",
"Z  c #EF4246",
"A  c #EF4548",
"S  c #EF4549",
"D  c #EF474B",
"F  c #EF484C",
"G  c #EF4B4E",
"H  c #F04B4E",
"J  c #F04C4F",
"K  c #EF4F52",
"L  c #F05053",
"P  c #F05154",
"I  c #F05457",
"U  c #F05558",
"Y  c #F15659",
"T  c #F1565A",
"R  c #F15E61",
"E  c #F26366",
"W  c #F26568",
"Q  c #F2676B",
"!  c #F2696C",
"~  c #F26A6D",
"^  c #F37578",
"/  c #F3787A",
"(  c #F47A7C",
")  c #F58789",
"_  c #F59091",
"`  c #F59092",
"'  c #F59192",
"]  c #F69C9D",
"[  c #F79EA0",
"{  c #F79FA3",
"}  c #F7A5A7",
"|  c #F7A6A8",
" . c #F7A7A8",
".. c #F7AAAB",
"X. c #F8AAAC",
"o. c #F8ABAC",
"O. c #F8B1B3",
"+. c #F8B3B4",
"@. c #FABABB",
"#. c #F9B9BC",
"$. c #F9BDBF",
"%. c #F9BEBF",
"&. c #FAC0C1",
"*. c #FAC2C3",
"=. c #FAC4C5",
"-. c #FAC7C8",
";. c #FBC9CA",
":. c #FBCBCD",
">. c #FBCECF",
",. c #FBCFCF",
"<. c #FBCFD0",
"1. c #FBD2D3",
"2. c #FCDADB",
"3. c #FCDDDE",
"4. c #FDE2E2",
"5. c #FDE3E3",
"6. c #FDE4E4",
"7. c #FDE4E5",
"8. c #FDE5E5",
"9. c #FDE7E7",
"0. c #FDE8E8",
"q. c #FDEDEE",
"w. c #FEF4F4",
"e. c #FEF9F9",
"r. c #FEFAFA",
"t. c #FFFAFB",
"y. c #FFFBFB",
"u. c #FFFCFD",
"i. c #FFFDFD",
"p. c white",
/* pixels */
"                                                                                                                                ",
"                                                                                                                                ",
"                                                                                            d d d d d d d                       ",
"                                                                                            d d d d d d d d d d                 ",
"                                                                                            d d d d d d d d d d d d             ",
"                                                                                            d d d d d d d d d d d d             ",
"                                                                                            d d d d d d d d d d d d             ",
"                                                                                            d d d d d d d d d d d d             ",
"                                                                          d d d d d d d d d d d d d d d d d d d d d             ",
"                                                                          d d d d d d d d d d d d d d d d d d d d d             ",
"                                                                          d d d d d d d d d d d d d d d d d d d d d             ",
"                                                                          d d d d d d d d d d d d d d d d d d d d d             ",
"                                                                        d d d d d d d d d d d d d d d d d d d d d d             ",
"                                                        d d d d d d d d d d d d d d d d d d d d d d d d d d d d d d             ",
"                                                      d d d d d d d d d d d       d d d d d d d                                 ",
"                                                      d d d d d d d d d d d       d d d d d d                                   ",
"                                                      d d d d d d d d d d d       d d d d d d                                   ",
"                                                      d d d d d d d d d d d       d d d d d d                                   ",
"                                              d d d d d d d d d d d d d d d       d d d d d d                                   ",
"                                              d d d d d d                         d d d d d d                                   ",
"                                              d d d d d                           d d d d d d                                   ",
"                                              d d d d d                           d d d d d d                                   ",
"                                        d d d d d d d d                   d d d d d d d d d d                                   ",
"                                      d d d d d                           d d d d d d d d d d                                   ",
"                                      d d d d d                           d d d d d d                                           ",
"                                      g d d d k                           d d d d d d                                           ",
"                          . . . . . 4 f z z z n . . . . .               d d d d d d d                                           ",
"                        . . . . . . - & + + + o . . . . . .       d d d d d d d d d d                                           ",
"                      . . . . . . . . > > > > . . . . . . . .     d d d d d d                                                   ",
"                    . . . . . . . . . . . . . . . . . . . . .     d d d d d                                                     ",
"                    . . . . . . . . . . . . . . . . . . . . . . k d d d d d                                                     ",
"            . . . . . . . . . . . . . . . . . . . . . . . . . . n d d d d d                                                     ",
"            . . . . . . . . . . . . . . . . . . . . . . . . . . @ d d d d d                                                     ",
"            . . . . . . . . . . . . . . . . . . . . . . . . . . @ d d d d d                                                     ",
"            . . . . . . . . . . . . . . . . . . . . . . . . . . @ d d d d z & > . .                                             ",
"            . . . . . . . . . . . . . . . . . . . . . . . . . . + l k l k v X . . . . .                                         ",
"            . . . . . . . . . . . . . . . . . . . . . . . . . . X & & & & & : > . . . . .                                       ",
"            . . . . . . . . . . . . . . . . . . . . . . . . . . . > > > > > . . . . . . . .                                     ",
"            . . . 9 p M M p r 1 . . . . . . . . . . . . . . . . . . . . . . . . . . . . . . .                                   ",
"            . . . V &.1.1.>./ 5 . . . . . . . . . . . . . . . . . . . . . . . . . . . . . . . . .                               ",
"            . . , J 0.u.u.u.' 9 . . . . . . . . . . . . . . . . . . . . . . . . . . . . . . . . .                               ",
"            . . , J 0.u.u.y.' 5 . . . . . . . . . . . . . . . . . . . . . . . . . . . . . . . . .                               ",
"            . . , J 6.r.r.w.' w , 2 , 1 . . . . . . . . . . . . . . . . . . . . . . . . . . . . .                               ",
"            . . , a ]  ...o.' W W W E p . . . . . . . . . . . . . . . . . . . . . . . . . . . . .                               ",
"            . . . 9 y y u V ] 2.3.3.;.! 1 . . . . . . . . . . . . . . . . . . . . . . . . . . . .                               ",
"            . . . . . . , e  .y.u.u.0./ 3 . . . . . . . . . . . . . . . . . . . . . . . . . . . .                               ",
"            . . . . . . , e  .y.u.u.0./ 3 . . . . . . . . . . . . . . . . . . . . . . . . . . . .                               ",
"                    . . , e ..u.u.u.0./ 3 . . . M { O.O.| L 1 . . . . . . . . . . . . . . . . . .                               ",
"                    . . . 0 ) ;.:.:.#.E 9 . . . K 6.u.u.q.! , . . . . . . . . . . . . . . . . . .                               ",
"                      . . , r y i i y 0 . . . . K 6.u.u.q.! 9 . . . . . . . . . . . . . . . . . .                               ",
"                        . . , , . . . . . . . . K 8.u.u.q.! 3 > . . . . . . . . . . . . . . . . .                               ",
"                          . . , . . . . . . . . A @.1.1.-.^ D A A V 0 . . . . . . . . . . . . . .                               ",
"                                            . . 0 G P P W } %.%.%.o.A . . . . . . . . . . . . . .                               ",
"                                            . . . . . . V *.u.u.u.4.U . . . . . . . . . . . . . .                               ",
"                                            . . . . . . V =.u.u.u.6.U . . . . . . . . . . . . . .                               ",
"                                                  . . . V =.u.u.u.6.U . . . . . . . . . . . .                                   ",
"                                                  . . . M +.8.0.0.1.L . . . . . . . . . . .                                     ",
"                                                  . . . 9 H U U U L r . . . . . . . . . . .                                     ",
"                                                    . . . . , , , , . . . . . . . . . . .                                       ",
"                                                      . . . . . . . . . . . . . . . . . .                                       ",
"                                                        . . . . . . . . . . . . . . . .                                         ",
"                                                        . . . . . . . . . . . . . . . .                                         ",
"                                                                                                                                ",
"                                                                                                                                "
};
