/* XPM */
static char *_ec4989cb4a246abbe0c97a490a49160DjgasnvFuMZuWWyS[] = {
/* columns rows colors chars-per-pixel */
"32 32 121 2 ",
"   c None",
".  c #070202",
"X  c #130606",
"o  c #110E0A",
"O  c #1E0909",
"+  c #17130E",
"@  c #19130C",
"#  c #191611",
"$  c #1E1812",
"%  c #1E1D1B",
"&  c #230C0C",
"*  c #2B0E0E",
"=  c #300F0F",
"-  c #24190D",
";  c #2A1E0F",
":  c #2D1111",
">  c #221B15",
",  c #261F18",
"<  c #341212",
"1  c #3C1514",
"2  c #371A12",
"3  c #3D1C13",
"4  c #3F1818",
"5  c #242215",
"6  c #2D2011",
"7  c #25211A",
"8  c #2C251D",
"9  c #2B2B1C",
"0  c #342615",
"q  c #3D2B16",
"w  c #3D2C19",
"e  c #161C22",
"r  c #1C1F21",
"t  c #15222D",
"y  c #18242E",
"u  c #1A2631",
"i  c #1C2934",
"p  c #1C2C3B",
"a  c #222526",
"s  c #282622",
"d  c #222827",
"f  c #20252A",
"g  c #262B2F",
"h  c #2C2E2C",
"j  c #372D22",
"k  c #392F23",
"l  c #3D3226",
"z  c #262C31",
"x  c #282F36",
"c  c #29323A",
"v  c #343332",
"b  c #33393E",
"n  c #3E3E3E",
"m  c #441616",
"M  c #4D1717",
"N  c #4B1816",
"B  c #471919",
"V  c #4D1A19",
"C  c #541B1B",
"Z  c #5C1E1D",
"A  c #641E1E",
"S  c #442A17",
"D  c #432D1B",
"F  c #4A2E19",
"G  c #46321C",
"H  c #4C331A",
"J  c #50371D",
"K  c #54391D",
"L  c #6A201F",
"P  c #5B2020",
"I  c #423220",
"U  c #433F23",
"Y  c #5A3E20",
"T  c #642121",
"R  c #6C2322",
"E  c #752625",
"W  c #792524",
"Q  c #792828",
"!  c #5C552F",
"~  c #604120",
"^  c #6C4B26",
"/  c #744F27",
"(  c #604931",
")  c #213344",
"_  c #2C3741",
"`  c #243748",
"'  c #253A4D",
"]  c #363F44",
"[  c #313D48",
"{  c #263C51",
"}  c #283D52",
"|  c #3B454B",
" . c #2A4155",
".. c #2D445A",
"X. c #2F485F",
"o. c #314558",
"O. c #334A5F",
"+. c #2F4960",
"@. c #324D65",
"#. c #334F68",
"$. c #35526D",
"%. c #3C556C",
"&. c #365572",
"*. c #385773",
"=. c #375876",
"-. c #3B5975",
";. c #3C5D7C",
":. c #4E4E4E",
">. c #56524D",
",. c #5B5B5B",
"<. c #626262",
"1. c #812726",
"2. c #812827",
"3. c #852B2A",
"4. c #3D6183",
"5. c #3E6589",
"6. c #406281",
"7. c #9F9E9D",
"8. c #A7A7A6",
"9. c #AAAAAA",
"0. c #B4B4B4",
/* pixels */
"                              V <                               ",
"                            O E 4                               ",
"                          C m Q P R m                           ",
"                        V 1.1 Z < T L & 4                       ",
"                    . 1.m T V C Z C m C 1.                      ",
"                  V m Q * R 1 Y F M C V 2.< V                   ",
"                T R m m V S H e 7 J m L V = W : 1               ",
"            m m Q Z m 2 ~ 8 p c ) u w G N Z Z & A 4             ",
"          X 1.N V C F G y ' y / 0 u ) s J 3 Z m C 1 =           ",
"      * L & C m 0 K , ) +.+.( K Y h @...u G F m A m 1 Q         ",
"      T A < m F I t ..@.@.+.l / J z @.@.@.' s H m P B E         ",
"      T V 2 K a ' +.@.@.@.@.a / H _ @.@.@.@...p G S V C &       ",
"      V H S t ..#.@.[ | | [ b ^ I ] | | | | X.+.{ # K 3 :       ",
"            ` *.;.o.l l l l l F w j j l l j z =.&.u             ",
"            } ;.;.@.I , $ $ > q 6 > > $ $ l z 4.4.p             ",
"            } ;.6.%.l >       ; -         j c 5.4.p             ",
"            } ;.6.-.l >                   l c 5.4.p             ",
"            } ;.6.*.I >                   l c 5.4.p             ",
"            } 6.;.%.l >                   j c 4.4.p             ",
"            { ;.;.#.l ,                   j c 4.4.p             ",
"            ' ;.;.O.I 6                   j x ;.;.p             ",
"            ` ;.-.@.I ,                   j x ;.=.}             ",
"            ) *.*.@.l s                   j x =.=. .            ",
"            c &.&.o.l ,                   j z &.&.{             ",
"            p $.$.o.l ,                   j z $.$.'             ",
"            i #.#. .l ,                   j z #.+.`             ",
"            u @.@. .l 7                   j z @.#.y             ",
"            a #.@.} 8 #                   7 %  ...g             ",
"            9 9 5 5 $ o                   + 5 U ! !             ",
"            0 6 ; > # h <.<.<.<.,.,.,.,.n o @ 6 w w             ",
"            q 0 6 > 7.8.0.0.0.0.0.0.0.0.0.9.>.6 w w             ",
"                  , <.<.<.<.,.:.:.:.:.:.:.:.v                   "
};
