/* XPM */
static char *_118bf1b91e3497daffbb61ffd86be63w4zHAjX27BfpxztR[] = {
/* columns rows colors chars-per-pixel */
"64 64 170 2 ",
"   c None",
".  c #000E27",
"X  c #000F2D",
"o  c #00102E",
"O  c #001235",
"+  c #01143A",
"@  c #001744",
"#  c #081C40",
"$  c #01194B",
"%  c #011B52",
"&  c #001E5B",
"*  c #062157",
"=  c #092255",
"-  c #0A255C",
";  c #0F285A",
":  c #05235D",
">  c #112756",
",  c #10295D",
"<  c #032263",
"1  c #082662",
"2  c #0D2960",
"3  c #0F2E6D",
"4  c #05266A",
"5  c #122F6A",
"6  c #17346E",
"7  c #002675",
"8  c #072970",
"9  c #0B2E75",
"0  c #002778",
"q  c #01297B",
"w  c #0D3076",
"e  c #0D327D",
"r  c #153474",
"t  c #15367B",
"y  c #1C3A7A",
"u  c #30446C",
"i  c #2F4570",
"p  c #24417C",
"a  c #304776",
"s  c #002B83",
"d  c #012E8A",
"f  c #053087",
"g  c #0B3385",
"h  c #04318C",
"j  c #093289",
"k  c #123883",
"l  c #183C83",
"z  c #002F90",
"x  c #023292",
"c  c #093794",
"v  c #0C3A96",
"b  c #00339A",
"n  c #07389A",
"m  c #0C3B9C",
"M  c #123E97",
"N  c #0035A3",
"B  c #0037A8",
"V  c #013AAD",
"C  c #0A3DA6",
"Z  c #013BB2",
"A  c #1F4081",
"S  c #1D489F",
"D  c #1B459D",
"F  c #254584",
"G  c #22448A",
"H  c #26488F",
"J  c #2A4988",
"K  c #324E89",
"L  c #33518D",
"P  c #20489B",
"I  c #395692",
"U  c #0D42AD",
"Y  c #1345AC",
"T  c #1E4CA9",
"R  c #1745A5",
"E  c #0740B4",
"W  c #0B43B6",
"Q  c #0E46B8",
"!  c #1047B6",
"~  c #1349B7",
"^  c #1047B9",
"/  c #144BBA",
"(  c #194FBB",
")  c #1A4CB1",
"_  c #1E52BB",
"`  c #234DA4",
"'  c #254FA8",
"]  c #2650A5",
"[  c #2451AC",
"{  c #2855B4",
"}  c #2255BC",
"|  c #2658BE",
" . c #295ABE",
".. c #1E54C0",
"X. c #2156C1",
"o. c #2559C3",
"O. c #2B5DC5",
"+. c #305FC2",
"@. c #2E60C7",
"#. c #2F61C8",
"$. c #3463C5",
"%. c #3966C4",
"&. c #3D6AC5",
"*. c #3465CA",
"=. c #3867C9",
"-. c #3768CC",
";. c #3B6BCD",
":. c #3F6ED0",
">. c #426DC5",
",. c #416FCC",
"<. c #4771C7",
"1. c #4970C3",
"2. c #4270CD",
"3. c #4C75CB",
"4. c #4F79CD",
"5. c #537BCC",
"6. c #587ECC",
"7. c #406FD0",
"8. c #4372D1",
"9. c #4876D3",
"0. c #4F7AD3",
"q. c #537DD3",
"w. c #587FD0",
"e. c #5D82CE",
"r. c #5C82D2",
"t. c #5D85D8",
"y. c #6487CF",
"u. c #6286D0",
"i. c #6589D2",
"p. c #6A8DD4",
"a. c #678CDB",
"s. c #6D92DC",
"d. c #7494D6",
"f. c #7495DA",
"g. c #7C9BDA",
"h. c #8899BB",
"j. c #8599C0",
"k. c #819EDA",
"l. c #85A1DC",
"z. c #89A5DD",
"x. c #8FA9DE",
"c. c #91AADE",
"v. c #84A2E2",
"b. c #8EABE4",
"n. c #94ADE1",
"m. c #97B0E4",
"M. c #9DB4E3",
"N. c #A1B6E3",
"B. c #A3B9E5",
"V. c #ABBEE6",
"C. c #A0B8E9",
"Z. c #ABBFE8",
"A. c #ADC1EA",
"S. c #B4C6EB",
"D. c #B7C9EB",
"F. c #BCCDED",
"G. c #C4D2EF",
"H. c #C5D4F1",
"J. c #C9D6F0",
"K. c #CEDAF2",
"L. c #D3DEF2",
"P. c #D6E1F5",
"I. c #DCE4F5",
"U. c #E3E9F7",
"Y. c #E5ECF8",
"T. c #E9EEF9",
"R. c #EEF3FA",
"E. c #F2F5FC",
"W. c #F6F9FD",
"Q. c #FDFEFF",
/* pixels */
"                                                                                                                                ",
"                                                          M.x.z.l.l.z.                                                          ",
"                                                  z.y.>.$.O.o.X.} ..} X.o.$.4.b.                                                ",
"                                            c.u.&.o.| | X._ _ / _ _ _ / ( _ o.$.<.i.z.                                          ",
"                                        l.5.$.| | | } .._ ( ^ ../ ...._ _ o.@.$.$.%.;.2.4.                                      ",
"                                    N.5.+.| | | o.} .._ / / ..^ ../ ....o.$.$.$.$.$.$.$.*.3.                                    ",
"                                  g.%.| | | o.} _ _ / / ..............o.$.$.$.*.=.%.$.=.$.=.-.=.                                ",
"                                5.| } } | | } _ / / / ( ../ ........o.@.$.=.*.=.=.=.-.=.-.$.$.o.X.                              ",
"                              >._ } | | } } ../ / / / / ..........o.O.-.$.-.-.-.=.=.=.=.=.*.@.X.X.o.                            ",
"                            6.| _ } } | _ _ / / / / ( ........o.o.O.*.*.&.-.;.&.;.;.&.;.=.*.O.o.o.o.,.                          ",
"                          y.| } } | | _ _ / ^ / / ..( ......o.o.O.$.=.-.;.;.;.;.;.,.>.;.*.#.O.O.o.*.$.<.                        ",
"                        k. ._ } } | _ ../ ~ / / / ......o.o.o.@.*.=.-.;.;.;.2.;.,.;.,.;.*.#.#.O.*.*.*.@.                        ",
"                      V.>.} } } | _ _ / / ^ Q ..........o.o.O.#.=.=.;.;.2.;.2.8.8.8.;.-.*.*.*.*.=.*.*.O.o.                      ",
"                      y.} } } } X._ _ ~ ^ Q / / / ......o.O.@.*.=.;.;.;.2.8.8.2.8.7.;.-.-.*.=.;.-.=.+.o.o...                    ",
"                    N. .} } } } } _ / Q / ../ ........o.O.@.*.;.-.;.,.,.8.8.8.8.8.8.;.;.-.-.:.;.;.-.O.O.o.o.                    ",
"                    5._ } } } } ..( ^ Q Q Q / ........O.O.$.*.*.-.;.,.8.2.8.8.8.8.;.:.;.:.:.:.;.-.*.O.O.O.o.X.                  ",
"                  V. ._ } } } } ( ~ ^ Q ~ / ...._ ..X.O.@.#.*.;.;.;.:.:.8.8.9.9.7.:.:.:.7.8.:.:.-.O.O.O.o.o...                  ",
"                  d.} } _ } } } ( ~ Q ^ ~ / _ o.@.O.o.O.@.*.*.*.;.;.8.8.9.9.9.9.0.0.9.9.9.7.7.-.-.*.*.#.O.o.o.                  ",
"                  5._ _ } } } } ( ^ W ^ ~ O.p.C.B.p.=.@.@.#.*.;.;.;.8.8.8.9.t.v.S.Z.v.q.9.7.:.-.-.*.#.O.O.o.o...                ",
"                  %._ _ } } } ) ~ ^ ^ ^ o.z.Y.Q.Q.U.z.-.#.*.*.;.;.:.:.8.9.0.M.E.Q.Q.T.m.q.7.:.-.-.-.*.O.O.O.o.o.                ",
"                V.{ } } ( { _ ( ^ Q Q ^ 3.K.Q.Q.Q.Q.L.q.#.#.*.-.;.;.8.8.8.a.I.Q.Q.Q.Q.K.a.:.:.-.-.#.#.#.#.o.o...                ",
"                c.} _ _ } } } ( ^ Q Q ~ r.U.Q.Q.Q.Q.I.i.#.#.-.-.;.:.:.:.8.f.T.Q.Q.Q.Q.I.s.:.:.-.-.*.#.#.O.o.o.o.o.              ",
"                d._ _ } } } _ ( ^ W Q ~ <.J.Q.Q.Q.Q.J.0.#.#.-.-.;.:.:.8.8.t.P.Q.Q.Q.Q.H.t.:.:.-.-.*.#.#.O.o.o...o.              ",
"                p.( } ) } } } ~ ^ W Q ^ ( d.T.Q.Q.U.s.#.#.#.*.-.-.;.:.;.8.9.b.E.Q.Q.U.v.:.:.:.-.-.*.#.#.O.O.....o.              ",
"                p.) } } } } _ ~ Q W Q Q Q ..0.B.B.q.O.O.@.@.#.-.-.;.:.:.:.:.9.g.S.A.s.9.:.:.-.-.-.*.#.*.O.o.o...o...            ",
"                p.} } ( ( } _ ) Q Q Q Q Q ../ ....o.o.o.@.@.#.-.-.-.;.-.:.:.:.8.9.:.:.:.:.:.-.-.-.*.#.O.O.o.X...o...            ",
"                y.} _ _ } } } ~ Q W W Q / / / .._ X.o.o.O.@.#.#.*.-.-.:.:.:.:.:.:.:.-.:.-.-.-.-.*.#.O.O.o.o.X...o...            ",
"                y.) _ _ } } ( ~ Q W Q ! / / / .._ } o.o.@.@.#.#.#.-.-.-.:.:.:.:.:.-.:.:.-.-.-.*.#.#.O.O.o.o.....X...            ",
"                y._ } } _ } } ~ W W W W ! / ../ ....X.o.O.O.@.@.#.*.*.-.-.-.:.-.-.-.-.-.-.*.*.#.#.#.o.O.o.X.....o...            ",
"                y.( ) } _ _ _ ~ W W W Q ~ ~ / _ / ......o.o.o.@.O.#.*.*.-.-.-.*.*.-.-.-.*.*.*.#.#.O.o.o.X.....( X...            ",
"                y.( } } } } ( ~ W W W W ^ ^ / / / _ ....X.O.o.@.O.#.#.*.*.*.*.*.*.*.*.*.#.#.#.O.O.O.o.o.........X...            ",
"                6._ } ) ) } ) ~ W E Z Q Q ^ ~ / / ........X.o.o.O.O.O.@.#.#.#.#.#.#.#.#.#.O.O.O.o.o.o.o...../ / ....            ",
"                6.} } ( _ _ ( ~ W W Z W Q Q ^ ~ ^ ../ ....X.o.o.o.O.O.@.O.#.#.O.#.#.O.#.O.O.O.o.o.o.X...../ ( / ../             ",
"                6.) _ { _ } ) ~ W Z W W Q Q Q ~ ^ / ( ......X.o.o.o.o.o.O.O.O.O.O.O.O.O.o.o.o.o.o.X...........Q ..(             ",
"                5.} _ _ } _ ( ~ E Z Q } O.} ~ ~ ^ / ( ( ....+.2.;.@.o.o.o.o.o.o.O.o.+.O.O.o.o.X.........../ / ^ ../             ",
"                5.( ( { _ _ ) ! W _ e.N.D.m.6.( ^ / / ( X.5.M.G.D.v.2.o.o.o.o.o.O.q.g.k.s.;.o.........../ / / ^ _ /             ",
"                5.) } } ( } ( ^ ( g.P.Q.Q.W.K.d...^ ~ X.p.J.W.Q.Q.R.Z.6.o.X.X.o.f.G.T.E.I.S.u.o...../ / / / Q Q _ /             ",
"                3._ _ _ { _ ( ) k.U.Q.W.W.W.Q.T.N.,.+.k.L.W.Q.W.W.W.W.F.r.o.O.k.U.Q.W.W.Q.W.L.s...Q ../ ^ ^ Q Q _ /             ",
"                3.} _ } _ _ { k.R.Q.I.c.p.x.L.W.W.U.L.E.W.E.G.v.l.D.E.W.L.z.m.Y.W.L.n.z.Z.U.W.Y.s._ ^ ^ ^ Q Q Q _ /             ",
"                1.) _ _ _ } p.T.Q.L.3.! Z Q 5.U.Q.Q.Q.Q.E.n.+...( +.l.E.Q.W.W.Q.U.5.X._ o.w.K.Q.K.$.^ ~ ^ Q E E / ^             ",
"                1.( _ _ _ } 6.L.U.e.Z Z Z Z W u.I.E.E.U.z.o...^ ^ ~ o.z.I.E.R.P.e./ / / ..Q 0.L.v./ Q Q W W W E / Q             ",
"                >.( { ( { _ } >.y.! Z Z Z Z Z Z >.f.k.5.o.Z Z ..Q Q ^ o.5.f.p.=.~ ~ ^ / Q Q / 3._ Q E Q W E E E ~ W             ",
"                >.( { _ ( { ( ! U Z V Z Z Z Z Z Z ..Z Z C ..Z Z Q W Q Q Q ^ ^ Q Q Q Q Q Q Q Q Q Q Q W W E Z E Z ~ W             ",
"                >._ ( _ _ _ ( ! E Z Z Z Z Z Z E Z Z Z Z Z Z Z ^ E W W W Q Q Q Q Q Q Q Q W W W W E E E E E E E Z ~ W             ",
"                %._ _ ( { _ ( ! Z Z Z Z Z V Z V Z Z Z Z Z Z Z Z E W W W W W W W Q E Q W E W E W E E E Z Z Z Z Z Q E             ",
"                %.( _ { _ _ ( ! Z Z V V Z Z V Z Z Z Z Z Z Z Z Z Z Z Z W Z E E W E E E E E E E E Z E Z Z Z V Z Z W E             ",
"                %.{ _ _ _ _ ( ^ Z Z Z Z Z Z Z Z Z Z Z Z Z Z Z Z Z W Z E E E W E E E E E Z E E Z Z Z Z E Z Z Z Z Z Z             ",
"                 .( _ { _ _ ( ..Z Z Z Z Z Z Z Z Z Z Z Z Z Z Z Z Z Z Z Z Z Z Z Z Z E Z Z Z Z Z Z Z Z Z Z Z Z Z V Z Z             ",
"                $.( } ) } } ( ^ E Z V Z Z Z Z Z Z Z Z V Z Z Z Z Z Z Z Z Z Z Z Z Z Z Z Z Z Z Z Z Z Z Z Z V Z Z Z Z Z             ",
"                 ._ _ _ } ) ) ^ E V Z Z Z V V Z Z Z Z Z Z Z V Z B Z Z Z Z Z Z Z Z Z Z Z Z Z Z V E Z Z Z Z Z Z Z Z Z             ",
"                 .} } } _ _ ( C n C Z Z V Z Z Z Z V Z Z Z Z V N z C Z Z Z Z Z Z Z Z Z Z Z V V x M Y Z Z V Z Z Z Z Z             ",
"                 .} ) } _ ( Y n g s D C Z V Z Z Z Z Z Z Z V N s w k ` Z Z Z Z Z Z Z Z V V V x q 3 G ' Z Z V Z Z Z Z             ",
"                | ( _ } ) Y m h g 8 e D W Z Z Z Z Z Z Z V N d s r < A ' Z Z Z Z Z Z Z Z V z q 9 2 - F [ W Z Z V Z Z             ",
"                | } ) ( Y m h d g 4 4 t R C Z Z Z Z Z V N z s s 6 & 1 F [ Z Z Z Z Z Z B x 0 7 9 = % = p ' E Z Z Z Z             ",
"                | _ ~ R m j d d e : < < y ` W V V Z V B z s s s > % % 2 K [ Z Z Z V V b q 7 7 r # $ $ = p ] W Z Z Z             ",
"                } ~ Y v h d d       & & < r ] V V Z B z s s s     O % % & K { Z Z V b s 7 7 7     + $ $ % 6 ` V W Z             ",
"                } R c j d d           % < < y T Z B h d s s         + % % % I ) V b q 0 0 0         O @ $ $ 5 m Z Z             ",
"                R x h d d               % & < y ] c d s s             O $ % , I R s 0 0 0             O $ $ $ - P 3.            ",
"                x h d d                   % & & p j s s                 + $ $ , H 0 0 0                 o @ $ $ a h.            ",
"                d d d                       $ & r j d                     + $ % G 0 0                     X @ $ a h.            ",
"                d d                           % 9 d                         + $ l 0                         . @ a h.            ",
"                d                               4                             + g                               u               ",
"                                                                                                                                ",
"                                                                                                                                "
};
