/* XPM */
static char *fda7e3d7501b4210e2ceb9c5c64e17b64HOICuxRGTARyBKG[] = {
/* columns rows colors chars-per-pixel */
"32 32 140 2 ",
"   c None",
".  c #00102F",
"X  c #001234",
"o  c #01143C",
"O  c #041744",
"+  c #00194A",
"@  c #031E53",
"#  c #001D5A",
"$  c #082258",
"%  c #002060",
"&  c #092663",
"*  c #0A2A6D",
"=  c #002676",
"-  c #062A76",
";  c #052B78",
":  c #092F7E",
">  c #193877",
",  c #12357D",
"<  c #16387E",
"1  c #1D3E7F",
"2  c #002B83",
"3  c #002E8A",
"4  c #0E3381",
"5  c #04318D",
"6  c #0B368C",
"7  c #163E8D",
"8  c #003092",
"9  c #02349A",
"0  c #0034A0",
"q  c #0C3DA2",
"w  c #003AAF",
"e  c #0A3EAB",
"r  c #013BB2",
"t  c #1D4084",
"y  c #234487",
"u  c #27488C",
"i  c #0E40A7",
"p  c #0C41AE",
"a  c #1142A6",
"s  c #1244A9",
"d  c #1F4FAF",
"f  c #0740B4",
"g  c #0B43B5",
"h  c #0E46B8",
"j  c #1046B6",
"k  c #144AB7",
"l  c #1047B9",
"z  c #144BBA",
"x  c #194EBC",
"c  c #1E52BC",
"v  c #2255BC",
"b  c #2658BE",
"n  c #2B5BBE",
"m  c #596D94",
"M  c #1E54C0",
"N  c #2156C1",
"B  c #2559C3",
"V  c #2A5DC5",
"C  c #2E60C6",
"Z  c #2E61C8",
"A  c #3363C4",
"S  c #3967C4",
"D  c #3D69C4",
"F  c #3365CA",
"G  c #3768CB",
"H  c #3B6BCD",
"J  c #3E6ED0",
"K  c #466FC6",
"L  c #426FCB",
"P  c #406DC9",
"I  c #406FCE",
"U  c #4571CB",
"Y  c #4772CB",
"T  c #4270CF",
"R  c #4671CA",
"E  c #4873CA",
"W  c #4B74C8",
"Q  c #4C76C9",
"!  c #4E77CA",
"~  c #4975CE",
"^  c #4A74CB",
"/  c #527ACB",
"(  c #557CCD",
")  c #587FCD",
"_  c #406FD1",
"`  c #4271D0",
"'  c #4271D0",
"]  c #4573D1",
"[  c #4775D3",
"{  c #4976D3",
"}  c #4A77D3",
"|  c #517CD5",
" . c #5880CD",
".. c #5980CE",
"X. c #5D83CD",
"o. c #5E83CE",
"O. c #5E85D3",
"+. c #5F84D4",
"@. c #5F85D1",
"#. c #5D85D8",
"$. c #6186CF",
"%. c #6084D1",
"&. c #6689D4",
"*. c #6A8DD4",
"=. c #6F93DC",
"-. c #7393D6",
";. c #7092D8",
":. c #7394D8",
">. c #7B9ADA",
",. c #809BD9",
"<. c #81A0D9",
"1. c #84A1DD",
"2. c #87A4DC",
"3. c #93ACDF",
"4. c #8EAAE1",
"5. c #96AEE0",
"6. c #98B1E6",
"7. c #9AB2E2",
"8. c #A3B9E4",
"9. c #ABC0EB",
"0. c #AFC2E9",
"q. c #BDCEEF",
"w. c #C2D1EE",
"e. c #C2D0ED",
"r. c #CAD7F0",
"t. c #CDD9F1",
"y. c #D3DEF3",
"u. c #D7E1F4",
"i. c #D8E2F6",
"p. c #DEE6F7",
"a. c #D9E2F4",
"s. c #E4EBF9",
"d. c #E5EBF8",
"f. c #ECF1FA",
"g. c #F5F7FD",
"h. c #F4F7FC",
"j. c #F6F9FD",
"k. c #F9FBFD",
"l. c white",
"z. c #F9FBFE",
/* pixels */
"                                                                ",
"                      <.! A N M c c N P &.                      ",
"                  ,.D V b c c z M c V A A S E                   ",
"                / b b v k z M M M V A F F H A C                 ",
"              K v b c z z c M N B F H H H H F B N               ",
"             .v N c k z z M N B F G H H H H F V F F             ",
"            b v M z l z M M B F F H U ' L G F G H V N           ",
"          Q v v c h z M M B C F H U ' ' U J J H F V B           ",
"          v v v k j k N N V Z G H _ { } { _ _ J F C B N         ",
"        X.v v c j j ^ r.w.~ F G H [ } 8.p.6.[ G F Z V N         ",
"        K v v c j l 8.l.l.4.Z G J _ #.g.l.s.| J G Z V N         ",
"        D c v x h h *.k.j.+.Z F H J } i.l.q.` J G Z B N N       ",
"        D c v x h h z U U B Z F H J J | =.[ J G F Z B M N       ",
"        D c v x g h l M M B Z Z G G J J J J G F F V B M N       ",
"        D c v k g g l c M M B Z Z F G G G G F Z V V N c N       ",
"        A c d k g g h k x M B B V F V F Z F Z V B B M x c       ",
"        n v v k e g h l x x N V V V V V V V V B B M M z x       ",
"        S c c k h ) -.B l z A ,.;.V B B H %.P N M M z z x       ",
"        n v v k 5.g.z.t.~ K t.z.j.0.Z Y i.j.s.:.x z z h x       ",
"        n v d 3.f.@.S e.g.g.y.| ) p.y.d.8.~ >.f.O.l h g z       ",
"        n v c $.( r r c 6.7.V l l S 7.2.N l l %.N g g g l       ",
"        n c c k r r r r r r e h g h h l h h g h h g r r h       ",
"        b v v z r r r r r r r r r g g h g g g g f r r r f       ",
"        v v c z r w w w r r r w r r r r r r r r r r r r r       ",
"        n c c k r r r r w w w w r r r r r r r r r r w r r       ",
"        v v c q 6 e r r r w w 9 6 e r r r r w 5 t p r r r       ",
"        v c a 5 ; 4 s w r r 0 2 & 7 g r r w 3 - $ 7 i r r       ",
"        c s 5 3   $ , j r 0 2 2 O @ y e r 8 = - O + > p r       ",
"        q 5 3       # 4 q 2 2     o @ u 9 = =     X + * d       ",
"        5 3           # 4 2         o @ 4 =         X + m       ",
"        3               ;             o :             X m       ",
"                                                                "
};
