/* XPM */
static char *ec6c88ee461f44cbae051fd4781eff73jgkvxtjXOG9PochE[] = {
/* columns rows colors chars-per-pixel */
"32 32 201 2 ",
"   c None",
".  c #7E4002",
"X  c #864200",
"o  c #8D4700",
"O  c #8B4B01",
"+  c #894B09",
"@  c #954B00",
"#  c #9A4E00",
"$  c #9D5600",
"%  c #995E0F",
"&  c #925101",
"*  c #8E5311",
"=  c #965611",
"-  c #A45400",
";  c #A35B00",
":  c #AE5900",
">  c #A75D0C",
",  c #B55D00",
"<  c #AC6200",
"1  c #A3600D",
"2  c #BB6202",
"3  c #B36900",
"4  c #B96C00",
"5  c #BA6708",
"6  c #B7670A",
"7  c #AD7506",
"8  c #B57602",
"9  c #B87508",
"0  c #BF7D02",
"q  c #B16A1B",
"w  c #9D6620",
"e  c #A36621",
"r  c #B7772C",
"t  c #B77923",
"y  c #B47A31",
"u  c #C16400",
"i  c #CB6D01",
"p  c #C36901",
"a  c #CB7103",
"s  c #CE790F",
"d  c #D37602",
"f  c #D37800",
"g  c #DC7D00",
"h  c #D27C11",
"j  c #BC8939",
"k  c #DA8100",
"l  c #DE830C",
"z  c #CE9607",
"x  c #D88415",
"c  c #E18500",
"v  c #E58900",
"b  c #E68E12",
"n  c #E4911B",
"m  c #EC9A1B",
"M  c #EA961A",
"N  c #D8A701",
"B  c #DEAD02",
"V  c #DAAB0D",
"C  c #F9AE03",
"Z  c #F9AF0A",
"A  c #EDB802",
"S  c #ECB908",
"D  c #E1B106",
"F  c #FAB401",
"G  c #FABC01",
"H  c #FAB309",
"J  c #FABE0B",
"K  c #F0BB0D",
"L  c #E0A418",
"P  c #F5A41D",
"I  c #F7A81F",
"U  c #EBB01F",
"Y  c #ECB410",
"T  c #FAB413",
"R  c #FABC13",
"E  c #F9B61D",
"W  c #FABC1C",
"Q  c #CB832B",
"!  c #C69426",
"~  c #D1932D",
"^  c #C28B31",
"/  c #E79A22",
"(  c #E39F36",
")  c #CFA22B",
"_  c #EAA52A",
"`  c #F4A521",
"'  c #F8AC25",
"]  c #F8AE29",
"[  c #F9B323",
"{  c #FABB23",
"}  c #F9B32C",
"|  c #FABA2B",
" . c #F5B62C",
".. c #F9B533",
"X. c #F7B931",
"o. c #FABB33",
"O. c #FABB39",
"+. c #F6B237",
"@. c #F2C600",
"#. c #FBC302",
"$. c #FCCB03",
"%. c #FBC30C",
"&. c #F6CC09",
"*. c #FCCA0C",
"=. c #F4C806",
"-. c #F6D302",
";. c #FDD402",
":. c #FDDB02",
">. c #FDD40D",
",. c #FEDB0D",
"<. c #FBC413",
"1. c #FCCA14",
"2. c #FCCC1C",
"3. c #F7CC12",
"4. c #FDD312",
"5. c #FEDC14",
"6. c #FCD11D",
"7. c #FDDB1B",
"8. c #FFE201",
"9. c #FFE60B",
"0. c #FFE90F",
"q. c #FEE313",
"w. c #FFE913",
"e. c #FEE21D",
"r. c #FFEC1E",
"t. c #FCC620",
"y. c #FCCA25",
"u. c #FACC2A",
"i. c #F8C42B",
"p. c #FDD426",
"a. c #FEDA23",
"s. c #FCD429",
"d. c #FADD29",
"f. c #F9CF37",
"g. c #FAC33C",
"h. c #FACB3B",
"j. c #FDDB33",
"k. c #FCD03B",
"l. c #FEDF39",
"z. c #FDD233",
"x. c #FFEB22",
"c. c #FEE42A",
"v. c #FFEC2D",
"b. c #FEE023",
"n. c #FFE533",
"m. c #FFED31",
"M. c #FEE13D",
"N. c #FFE93D",
"B. c #FFF037",
"V. c #FFF13B",
"C. c #E5B44E",
"Z. c #FABD48",
"A. c #E2AE51",
"S. c #FBC645",
"D. c #FCCB4B",
"F. c #FDDF41",
"G. c #FCD04F",
"H. c #E9CF51",
"J. c #FBC45B",
"K. c #F6C857",
"L. c #FEE545",
"P. c #FFED45",
"I. c #FEE44E",
"U. c #FFEA4E",
"Y. c #FFF245",
"T. c #FFF34C",
"R. c #FFEB54",
"E. c #FEEA5C",
"W. c #FFF353",
"Q. c #FFF35A",
"!. c #E5CF62",
"~. c #F8CC66",
"^. c #F2DF6F",
"/. c #FDDF69",
"(. c #FDD978",
"). c #FDEC63",
"_. c #FEEE6C",
"`. c #FFF463",
"'. c #FFF16C",
"]. c #FEE773",
"[. c #FDEE75",
"{. c #FEE67E",
"}. c #F6E675",
"|. c #FFF57A",
" X c #FDF37D",
".X c #FEF175",
"XX c #FCDD81",
"oX c #FDDD96",
"OX c #FEE781",
"+X c #FFEB83",
"@X c #FFF583",
"#X c #FFF487",
"$X c #FDF28D",
"%X c #FDE499",
"&X c #F8E697",
"*X c #FFF796",
"=X c #FDF595",
"-X c #FEF699",
";X c #FFF89E",
":X c #FDE3A4",
">X c #FEEEB8",
/* pixels */
"                                                                ",
"                      @.:.w..X*X*X*X*X-X}.H.                    ",
"                  -.5.n.N.'.$X#X@X@X#X XW.`.$X&X                ",
"              @.7.E.E.c.N.[.[._._.'.`.m.v.`.=X;X X}.            ",
"            &.I.+XL.:.e.)._.).).E.R.x.w.v.'.|.Q.W.`.[.          ",
"          3.].+Xp.:.,.I.E.E.R.R.U.v.8.9.P.Q.Y.v.V.Y.Q.'.        ",
"        %.+XOX4.;.;.l.I.I.I.L.L.c.8.8.m.P.n.w.w.r.v.V.T.).      ",
"      A ].%X4.$.;.p.F.F.F.l.l.n.:.:.b.n.n.9.8.8.9.w.x.v.Y.!.    ",
"    z k.>Xz.$.$.4.z.j.j.j.n.j.,.:.,.c.c.9.:.8.8.8.9.0.d.) >     ",
"    Y %X(.#.$.$.p.p.s.p.s.a.>.:.:.a.a.5.:.8.:.8.8.-.V 9 < ;     ",
"    h.>Xy.%.#.2.2.6.6.p.6.4.$.;.5.7.5.:.:.:.:.:.B z < 3         ",
"  L (.XXR J <.<.1.1.1.1.>.$.$.>.6.4.;.;.:.:.N 8 3 3             ",
"  U %XD.R <.<.<.<.<.1.*.#.$.$.4.4.;.;.;.B 8 ; < <               ",
"   .:Xh.R W R J J %.%.#.#.#.*.*.$.$.D 7 & $ ;                   ",
"^ X.:Xo.W W W J G J G #.#.#.*.$.S 7 O o O                       ",
"j X.%Xo.{ { { R H G G G G %.%.#.S ! %                           ",
"w } oXo.{ { | W H F F G G G G #.#.#.t.i.                        ",
"+ _ (.Z.[ { | | R F F H G G G G G #.#.$.*.u.                    ",
"  ~ J.Z.[ [ | | { H F F H F G G G G #.G #.#.*.y.f.              ",
"  t ..~.[ } } o.o.E H C F F F F G G G G G #.#.#.#.2.k.          ",
"  * _ J.O.] } ..o.o.E Z C C F F F G G G G G #.#.#.#.$.2.u.      ",
"  . t ] Z.' } } ..O.o.E Z C C C F F F F G G G #.#.#.#.$.*.s.    ",
"    + / +.+.] ] ....O.O.} T Z C C F F F F G G G G #.#.%.s.C.=   ",
"    X 1 ` ..] ' ] ....O.O.o.' T C C C F F F F G G J 2.D.K.e     ",
"      o 6 ` ] ] ' } } ..O.O.O.O.| { E T T H W W i.S.G.~.y o     ",
"        & 5 m ' ' ' ] ] ....O...o.O.O.o.g.g.g.S.D.D.K.r @       ",
"          - 5 n P ` ' ' ' ' ........o.O.o.O.g.S.S.A.q #         ",
"            , , s m P ' ' ' ' ] } } } ..| X.g.A.Q > -           ",
"              , , u h n ` ` I ' ' ' } ..+.( Q 2 , -             ",
"                  2 u i d l b M m M n x a p 2 ,                 ",
"                      i d g c v v c g f a                       ",
"                                                                "
};
