/* XPM */
static char *ee58075ba6c4479fa8ac2cad780cf920dST1PqT2Hp2X1z3J[] = {
/* columns rows colors chars-per-pixel */
"64 64 172 2 ",
"   c None",
".  c #000000",
"X  c #0C0404",
"o  c #0D0905",
"O  c #070A0D",
"+  c #0B0B0A",
"@  c #130606",
"#  c #130C06",
"$  c #130E0A",
"%  c #1C0A09",
"&  c #16120B",
"*  c #1B130B",
"=  c #1C1A0F",
"-  c #0A0F14",
";  c #0C1115",
":  c #0F171E",
">  c #151514",
",  c #1A1611",
"<  c #1C1914",
"1  c #1C1C1B",
"2  c #131619",
"3  c #230B0B",
"4  c #2B0E0E",
"5  c #330F0F",
"6  c #25140C",
"7  c #2B140E",
"8  c #23190D",
"9  c #2C1C0F",
"0  c #30110E",
"q  c #2D1010",
"w  c #231D16",
"e  c #2D1E10",
"r  c #261F18",
"t  c #351211",
"y  c #3B1313",
"u  c #351911",
"i  c #1E211C",
"p  c #252313",
"a  c #2C2011",
"s  c #272018",
"d  c #2B231A",
"f  c #2E2C18",
"g  c #342514",
"h  c #3A2514",
"j  c #3D2A14",
"k  c #31291F",
"l  c #3A2A19",
"z  c #36331C",
"x  c #38351D",
"c  c #141C25",
"v  c #191D20",
"b  c #141F29",
"n  c #16222D",
"m  c #1F2422",
"M  c #192632",
"N  c #1B2935",
"B  c #1D2D3B",
"V  c #1F303F",
"C  c #262625",
"Z  c #252C2A",
"A  c #292929",
"S  c #342B21",
"D  c #382F23",
"F  c #3E3327",
"G  c #3E3A20",
"H  c #20303F",
"J  c #29333C",
"K  c #303030",
"L  c gray23",
"P  c #441515",
"I  c #4A1717",
"U  c #461817",
"Y  c #491817",
"T  c #431919",
"R  c #4C1B1B",
"E  c #501717",
"W  c #541C1C",
"Q  c #5D1D1C",
"!  c #641E1E",
"~  c #422D17",
"^  c #432F19",
"/  c #4A2F19",
"(  c #473019",
")  c #4A331A",
"_  c #53391C",
"`  c #5A3E1F",
"'  c #50361B",
"]  c #562020",
"[  c #5F2222",
"{  c #443F23",
"}  c #423729",
"|  c #45392B",
" . c #493D2D",
".. c #5D3F20",
"X. c #642322",
"o. c #6B2322",
"O. c #6E2929",
"+. c #732525",
"@. c #7D2625",
"#. c #7E2827",
"$. c #772A2A",
"%. c #7C2D2D",
"&. c #484425",
"*. c #5E4020",
"=. c #514C29",
"-. c #5B542E",
";. c #56502C",
":. c #4F4231",
">. c #544634",
",. c #644422",
"<. c #684724",
"1. c #6B4925",
"2. c #724E27",
"3. c #744F28",
"4. c #775229",
"5. c #7B542A",
"6. c #7F592E",
"7. c #696236",
"8. c #1F3141",
"9. c #223344",
"0. c #233649",
"q. c #25394C",
"w. c #2C3D4C",
"e. c #263C51",
"r. c #283D52",
"t. c #31414F",
"y. c #2A4055",
"u. c #2E465C",
"i. c #2F485F",
"p. c #344656",
"a. c #37495B",
"s. c #384B5D",
"d. c #2F4860",
"f. c #324D66",
"g. c #3A4E60",
"h. c #334F69",
"j. c #35526D",
"k. c #3E556A",
"l. c #3D5367",
"z. c #375572",
"x. c #385673",
"c. c #375875",
"v. c #395976",
"b. c #3C5D7C",
"n. c #3F607F",
"m. c #414141",
"M. c #565553",
"N. c #5A5856",
"B. c #5B5B5B",
"V. c #686868",
"C. c #777777",
"Z. c #7A7A7A",
"A. c #812726",
"S. c #822827",
"D. c #852A2A",
"F. c #892E2D",
"G. c #843030",
"H. c #8B3030",
"J. c #903534",
"K. c #8B5F2F",
"L. c #845A2D",
"P. c #875E30",
"I. c #885E30",
"U. c #8B6030",
"Y. c #916331",
"T. c #3B5F81",
"R. c #3D6184",
"E. c #3E6589",
"W. c #416383",
"Q. c gray56",
"!. c gray52",
"~. c gray80",
/* pixels */
"                                                            X R T                                                               ",
"                                                            t D.O..                                                             ",
"                                                            ] A.o.X                                                             ",
"                                                        X t $.A.O.t y .                                                         ",
"                                                    @ R +.t F.@.D.R W D.] %                                                     ",
"                                                  T o.#.! 3 O.O.O.y I A.#.P                                                     ",
"                                                @ ] A.A.Q 3 W W ] 3 I A.A.I 3 .                                                 ",
"                                            3 T y [ S.#.W 4 R +.X.X P @.S.T y P R X..                                           ",
"                                          . D.@.P T D.o.0 P o.! o.[ y P $.Y t ! A.A.X                                           ",
"                                          @ A.#.I 0 o.R X.o.I 5 P Q o.[ 4 3 y o.A.A.3                                           ",
"                                    t 3 t R @.A.E % O.$.W 5 e _ h 0 W ! +.y y o.A.D.q y t 4 3                                   ",
"                                . R D.o.5 R A.A.E X $.E 3 g L.,.2.,.@ P ! E @ o.A.F.% 5 O.D.R                                   ",
"                                . H.A.! 0 W P 5 I ! 4 9 5.1.* ; > ~ 4.( 4 W +.X.T y @ t o.A.] X X . .                           ",
"                              @ ] F.A.Q 5 y W W P 0 *.5.l O M V M c 8 *.1.% P Q ! X.R t o.A.R @ Y F.J..                         ",
"                        . 3 W t %.S.A.W 4 W I 0 ( 2._ s c B q.q.q.9.n 1 ( ,./ 3 E ! $.t T ! Y X T A.H..                         ",
"                      % %.D.! t D.! T W t R 7 ) 4.( < n V q.c c b B q.9.c = <.<.7 t ! +.Q o.q X I A.H.X .                       ",
"                    . 3 A.A.! t T T +.I 3 / 5.) < c V 0.V n ) Y.2.; n 8.9.M < j <./ 3 T ! o.[ X P A.F.% 3 %                     ",
"                  3 @ % A.A.+.y Q ! T 0 _ 3.l 2 M 0.u.y.n g ~ 5.*.$ # B u.r.9.n a ` ` e 5 E o.o.5 y R X 3 E o.y                 ",
"              @ X.o.3 3 @.! Q 4 4 u h 1.) , M H y.i.h.y.M Y.g *.,.) ( B a.d.y.q.n 2 ) 1.h 0 I ! ! o.$.. 3 I S.O.                ",
"            X o.A.! 3 @ t t T y @ 1.2.g ; M q.u.d.h.h.i.M K.~ P.K.g ) V d.j.h.d.r.9.: 8 <.3.@ 0 ! ! ! ] 3 I A.$.%               ",
"            3 D.A.I 4 R ! P % ) 6.( + n 9.y.f.f.h.d.h.i.M ,.) Y.Y.e ~ H f.f.f.f.f.a.q.B 2 ( 5./ 3 I ! %.3 y @.D.t               ",
"            X.S.#.P % W y 6 <...e v N 0.f.f.f.f.h.h.h.i.M ~ ) Y.Y.8 g J f.f.h.f.f.f.h.y.9.n < _ 2.9 4 W +.X.q D.O.              ",
"          . F.+.R Q t q *.<.g v N q.u.f.f.f.f.f.h.d.j.d.M g ( Y.Y.* k w.h.f.h.d.h.d.h.d.y.q.N 1 ^ ,.) 4 I ! X.Y R .             ",
"          X P Y R y 7 ..1.e : B r.d.h.f.f.f.f.f.h.h.d.d.9.m / Y.Y.; M u.f.f.h.h.h.h.h.h.f.f.y.V c w _ ..~ t I ! ] .             ",
"          X G.y 6 1.<.8   n w.d.h.h.h.h.d.u.u.i.i.u.i.u.u.B ( P.P.; q.u.u.u.u.u.a.u.d.d.d.h.f.f.e.8.O 9 3.<.3 O.X.X             ",
"            y % ) ' *     H f.f.h.j.h.y.2  . . . . . . . . .~ 6.6.p  . . .>.>.>.>.>.>.:.J h.h.h.h.a.M   X ( a . 3               ",
"                $         9.h.x.v.x.h.q.s F F D D D F S F k 8 <.<.* S k k k S k k k k k 2 9.j.z.h.d.9.    &                     ",
"                          q.v.v.b.b.h.p.F } F } | | F } } } # ` ` w } | | | | | | | | | k B z.R.T.b.9.                          ",
"                          r.b.b.b.b.v.p.} } S d s s s s s s * ` ..& s s r s s s s s D F S B b.R.R.R.q.                          ",
"                          r.b.b.b.n.b.p.D } s o             # _ _ .               . k F S B E.E.R.R.e.                          ",
"                          r.b.n.n.n.n.s.F F w               # j j                 . S F S 8.E.E.E.R.r.                          ",
"                          r.b.n.n.n.W.k.F } e               o ~ j                 . C F S e.E.E.R.R.r.                          ",
"                          r.b.n.W.W.W.k.F } s                                     . S F S e.E.E.E.E.e.                          ",
"                          r.b.n.R.W.W.l.F F s                                     . S F S e.E.E.E.T.r.                          ",
"                          r.W.b.n.W.W.g.F F s                                     . S } S e.E.E.E.R.r.                          ",
"                          r.W.W.n.W.T.s.F F s                                     . d F S 8.E.E.R.R.r.                          ",
"                          r.W.b.b.W.n.s.F F r                                     . d F A e.E.E.T.T.r.                          ",
"                          r.W.R.n.b.n.s.F F s                                     . d F S 8.T.R.E.T.r.                          ",
"                          e.W.b.b.n.b.p.F F d                                     . d F S 0.R.R.T.T.e.                          ",
"                          w.W.b.b.n.v.p.F F e                                     . d F S 0.T.T.T.b.r.                          ",
"                          q.W.v.v.b.v.p.} F r                                     . d F S 0.T.T.b.b.r.                          ",
"                          q.n.v.b.v.v.p.} ^ d                                     . d F S 0.b.b.b.b.r.                          ",
"                          q.b.v.v.v.x.p.F } d                                     . d F S 9.b.c.b.c.z.                          ",
"                          0.b.x.x.v.x.p.F } d                                     . d } A 8.c.b.c.c.b.                          ",
"                          9.b.x.x.x.z.p.F F d                                     . d F S 8.b.c.c.c.c.                          ",
"                          9.v.x.x.x.j.p.D } d                                     . d F S V c.c.c.c.v.                          ",
"                          9.z.z.k.z.j.t.F } d                                     . d F k B z.z.z.z.c.                          ",
"                          H x.j.z.z.h.w.D } d                                     . d F S B z.z.z.z.z.                          ",
"                          B x.j.j.j.f.w.F } d                                     . d F D B z.j.h.z.z.                          ",
"                          B j.j.j.j.f.w.F F d                                     . d F D N j.h.h.h.h.                          ",
"                          N h.h.h.h.f.r.F F d                                     . d F D B f.h.h.h.h.                          ",
"                          N f.f.h.h.d.q.F F d                                     . d F D N f.f.f.h.h.                          ",
"                          N h.h.f.f.u.q.F F d                                     . d F D N h.h.f.f.r.                          ",
"                          N f.h.f.f.d.q.F } d                                     . d F D N h.h.f.f.q.                          ",
"                        & N f.f.f.h.u.q.S D s                                     . d D k n h.h.f.h.q.& .                       ",
"                        &.c f.f.h.f.y.q.d w ,                                     . , w w : 9.q.q.q.N { .                       ",
"                        { < Z Z i i i i d w ,                                     . & w w p x G =.=.;.-..                       ",
"                        = z x p p p p p < & $                                     . + * , f &.&.=.7.7.;..                       ",
"                        = g g = = 8 6 * < = + C K K K K K K K K K A A A A A A K A 2 o > , & e a a ) ) l .                       ",
"                        8 ) ^ a a a a w , & $ M.Z.Z.Z.Z.Z.Z.Z.Z.Z.Z.Z.Z.Z.Z.Z.Z.Z.L X $ $ = e a p ) ) g .                       ",
"                        8 ) ( p a a a $ V.7.V.W.Q.Q.Q.Q.Q.Q.Q.Q.Q.Q.Q.Q.Q.Q.Q.Q.Q.!.C.C.C.* a a a ) { g .                       ",
"                        8 ) ^ e a e e s ~.~.~.~.~.~.~.~.~.~.~.~.~.~.~.~.~.~.~.~.~.~.~.~.~.w a a a ) ) h .                       ",
"                        o & & o # + @ 1 B.B.B.B.B.B.B.B.B.m.A C A A A C C A A A C A A C C = * * * a w &                         ",
"                                      S V.V.V.V.V.V.V.V.V.V.V.V.V.V.V.V.V.V.V.V.V.V.V.V.V.C                                     "
};
