/* XPM */
static char *_79e20a4bacd4738bbc3cafe735aa14b18gzytDf1LumHELa[] = {
/* columns rows colors chars-per-pixel */
"64 64 231 2 ",
"   c None",
".  c #7E4102",
"X  c #844401",
"o  c #8B4601",
"O  c #8C4C02",
"+  c #864B0B",
"@  c #934B01",
"#  c #9A4E00",
"$  c #8C510E",
"%  c #955100",
"&  c #9D5301",
"*  c #995606",
"=  c #8E5313",
"-  c #985A16",
";  c #A45401",
":  c #A95700",
">  c #A45C00",
",  c #AB5B01",
"<  c #A65D0D",
"1  c #B35C00",
"2  c #B95F00",
"3  c #B05E08",
"4  c #9E6714",
"5  c #AD6300",
"6  c #A56807",
"7  c #B36401",
"8  c #BB6201",
"9  c #B56B00",
"0  c #BB6E00",
"q  c #B6680B",
"w  c #BB7A03",
"e  c #B8731B",
"r  c #AE6B1B",
"t  c #A76A23",
"y  c #B37727",
"u  c #AC732C",
"i  c #C26501",
"p  c #C36901",
"a  c #CA6D00",
"s  c #C46F0C",
"d  c #CD7200",
"f  c #CB730B",
"g  c #D17501",
"h  c #D67A00",
"j  c #DA7D01",
"k  c #D77D0C",
"l  c #CD7914",
"z  c #C17F32",
"x  c #BD8407",
"c  c #B88638",
"v  c #BB802D",
"b  c #C38808",
"n  c #DD8101",
"m  c #DF860D",
"M  c #C79207",
"N  c #D49F02",
"B  c #DA8819",
"V  c #CC9418",
"C  c #E38500",
"Z  c #E58A00",
"A  c #E3890B",
"S  c #E48D13",
"D  c #E7961C",
"F  c #F19F1C",
"G  c #D9A505",
"H  c #D2A11F",
"J  c #EDAB00",
"K  c #E6A706",
"L  c #F9AE02",
"P  c #F9AF0B",
"I  c #E6B504",
"U  c #FAB401",
"Y  c #FABC01",
"T  c #F9B30B",
"R  c #FABD0B",
"E  c #F4BC07",
"W  c #F6A51E",
"Q  c #F8A71F",
"!  c #F8A91E",
"~  c #F9B313",
"^  c #FABD13",
"/  c #FAB61D",
"(  c #FABB1C",
")  c #F3BA19",
"_  c #E7AC19",
"`  c #C88C2B",
"'  c #C48E37",
"]  c #D8912F",
"[  c #EA9B24",
"{  c #DDA333",
"}  c #EAA12A",
"|  c #F3A423",
" . c #F6A822",
".. c #F8AC24",
"X. c #F8AE2A",
"o. c #F6A826",
"O. c #E5B72E",
"+. c #F9B324",
"@. c #FABB23",
"#. c #F4B42D",
"$. c #F9B32C",
"%. c #FABA2C",
"&. c #E9A63C",
"*. c #F5AC33",
"=. c #F4B334",
"-. c #F9B533",
";. c #F9BA34",
":. c #FAB73B",
">. c #FABB3A",
",. c #F6B43B",
"<. c #EBB13E",
"1. c #EBC204",
"2. c #F6C504",
"3. c #FBC301",
"4. c #F5CC02",
"5. c #FCCB01",
"6. c #FBC30B",
"7. c #FCCB0B",
"8. c #FDD401",
"9. c #FEDB01",
"0. c #FDD40D",
"q. c #FEDB0B",
"w. c #F7D90A",
"e. c #FBC413",
"r. c #FCCB13",
"t. c #FAC119",
"y. c #FCCC1A",
"u. c #FDD313",
"i. c #FEDB15",
"p. c #FDD31B",
"a. c #FEDB1C",
"s. c #E9C416",
"d. c #FFE201",
"f. c #FFE50A",
"g. c #FFE80D",
"h. c #FEE313",
"j. c #FFEA14",
"k. c #FFE31B",
"l. c #FFEB1C",
"z. c #FCCD22",
"x. c #FCC628",
"c. c #FDD324",
"v. c #FEDC23",
"b. c #FDD42B",
"n. c #FDDA2C",
"m. c #F7DE21",
"M. c #FCCC34",
"N. c #FAC23C",
"B. c #F9C637",
"V. c #FDD433",
"C. c #FDDC33",
"Z. c #FBD23B",
"A. c #FDDD3B",
"S. c #FEE325",
"D. c #FFEB23",
"F. c #FFE42A",
"G. c #FFED2B",
"H. c #FFE533",
"J. c #FFED35",
"K. c #FEE33C",
"L. c #FFEA3B",
"P. c #F7E238",
"I. c #FFF035",
"U. c #FFF13B",
"Y. c #CD984C",
"T. c #D8AA51",
"R. c #FABD4C",
"E. c #F6B644",
"W. c #EDB959",
"Q. c #F2B349",
"!. c #DBAF61",
"~. c #E3B766",
"^. c #FBC543",
"/. c #FBCA43",
"(. c #FBCC4C",
"). c #FAC64B",
"_. c #FCD648",
"`. c #EAC75E",
"'. c #F9C955",
"]. c #FCD354",
"[. c #FBD859",
"{. c #E7C94F",
"}. c #FEE344",
"|. c #FFEA44",
" X c #FEE54B",
".X c #FEEB4C",
"XX c #FFF244",
"oX c #FFF24A",
"OX c #FEE552",
"+X c #FFEB54",
"@X c #FEEB5C",
"#X c #FEE358",
"$X c #FFF254",
"%X c #FFF35C",
"&X c #E4C668",
"*X c #FACA69",
"=X c #FAD667",
"-X c #FBCD72",
";X c #FDD779",
":X c #ECD86C",
">X c #FFEC64",
",X c #FEED6B",
"<X c #FCE369",
"1X c #FFF364",
"2X c #FFF36A",
"3X c #FEED74",
"4X c #FBE779",
"5X c #FFF373",
"6X c #FFF37B",
"7X c #FCD886",
"8X c #FDDC94",
"9X c #EBD583",
"0X c #FAE789",
"qX c #FFF583",
"wX c #FFF58C",
"eX c #FFF88F",
"rX c #FEEE9B",
"tX c #FCEB96",
"yX c #FFF696",
"uX c #FFF692",
"iX c #FEF69A",
"pX c #FFF89B",
"aX c #FFF897",
"sX c #FEEBA9",
"dX c #FDE6A6",
"fX c #FFF7A7",
"gX c #FEECB4",
"hX c #FEECBB",
"jX c #FDE7B3",
"kX c #FEF0B7",
"lX c #FEF1C4",
/* pixels */
"                                                                                                                                ",
"                                                          _.OX.X@X@X@X4X                                                        ",
"                                                I 4.w.f.H.6XyXiXiXiXiXiXiXuXuX0X:X                                              ",
"                                          2.4.8.d.f.f.F.,XyXyXyXyXyXyXyXiXiXiXfXiX5X@X{.{.                                      ",
"                                      1.8.9.f.h.k.F.L.,XuXyXuXwXwXwXwXwXwXuXuXwX2X%X1X1X6X0X9X                                  ",
"                                  2.8.9.f.F.|. X.X.X>XwX0XqXqX6X6X6X6X6XqXqXqX%XXXXX$X1XqXfXfXrX0X                              ",
"                              I 8.9.k.K.@X>X@X|.F.|.5X6X6X6X3X5X5X2X5X5X5X5X$XJ.I.U.XX2XeXpXfXfXfX4X&X                          ",
"                          G 4.8.q.|.3X4X3X Xk.f.k.@X3X5X5X,X2X,X,X,X>X2X2X$XG.D.G.G.oX5XeXaXaXaX5X2X3X:X                        ",
"                        G 8.q.a.<XuX0X>Xv.9.9.q. X3X3X,X,X>X1X>X@X>X%X@X.XD.g.j.l.G.%X6XqXqXqX1X%X1X2X6X4X                      ",
"                      G 8.u. X0XiX3XK.q.9.9.q.K.>X,X,X>X>X>X>X@X%X@X+X.XD.f.g.g.l.XX2X2X5X5X1XXXoX$X%X1X5X6X&X                  ",
"                    G 5.p.>XiXrX<Xn.9.8.9.q.S.@X>X>X@X@X@X+X+X+X+X+X.XF.f.d.d.f.D.$X%X1X1X$XI.I.U.XXoX$X%X1X5X&X                ",
"                  N 5.n.<XsXrX#Xi.8.8.9.q.a. X@X@X#X@X+XOXOXOX.X.X.XH.g.d.d.f.j.|..X+X$XXXG.D.G.I.I.U.oXoX%X1X5X:X              ",
"                N 5.c.3XsXrX X0.8.8.8.8.i.}.OXOXOXOX X XOX.X X}.|.H.h.d.9.d.h.J.|.|.|.L.D.j.j.l.l.G.I.I.XXXX$X%X2X              ",
"              M 2.y.4XkXfX_.0.5.5.8.8.0.C._. X X X X X X}.}.|.|.K.k.d.d.9.d.F.L.|.|.K.D.g.g.g.j.l.l.D.G.I.U.XXoX$X,X            ",
"              E r.<XkXsX[.0.5.8.8.8.7.v._.|.}.}.}.}._.K.K.K.K.K.k.9.d.9.d.S.H.L.L.L.D.f.d.d.f.g.g.j.l.l.D.G.I.U.oX$X:X          ",
"            K 5.Z.sXhX<Xu.5.5.5.5.8.u.A.A.A.A.A.A.A.K.K.K.A.H.k.9.9.9.9.k.F.H.H.H.S.f.d.d.d.d.d.g.g.g.l.l.D.D.J.J.XX4XY.        ",
"          b 6.y.sXlXuXc.5.5.5.5.8.0.n.A.A.C.A.C.C.A.C.H.C.H.S.9.9.9.9.q.S.H.H.F.F.h.d.d.d.d.d.d.d.g.g.g.j.j.l.D.P.{.y %         ",
"          I e.4XlXsX_.6.3.5.5.5.5.c.V.V.V.V.V.C.C.n.C.n.C.v.0.8.9.9.9.a.F.F.F.S.h.9.d.9.d.d.d.d.d.d.g.d.g.l.S.O.v 4 > %         ",
"        M E /.gXhX=X7.3.5.5.5.5.y.b.b.V.b.n.n.n.n.n.n.n.v.0.9.9.8.9.i.S.v.S.S.i.9.9.9.d.d.d.9.d.d.d.d.d.w.s.V q 6 5 > &         ",
"        _ e.;XlXdXM.7.6.6.3.3.r.c.c.c.c.c.c.c.v.c.v.c.v.u.8.8.8.9.0.a.v.v.S.i.q.9.d.d.9.d.9.d.d.d.d.d.1.N x 9 7 9 5 >           ",
"      x T M.sXlX;Xe.3.6.6.3.7.y.y.z.z.z.c.c.c.c.c.c.p.u.8.8.8.8.0.i.a.a.a.i.0.9.9.9.9.9.d.9.d.d.9.1.G x 0 9 0 9 5 >             ",
"      V ) =XlXhXx.6.6.6.3.7.t.y.y.y.y.y.p.y.p.p.p.p.u.0.5.8.8.8.u.a.a.a.i.q.q.9.9.9.9.9.9.9.9.4.N x 9 0 0 0 0 >                 ",
"      _ @.tXlX;X6.6.6.R 6.e.r.t.y.y.y.y.y.y.y.y.y.u.8.5.5.8.8.u.p.i.p.i.0.9.8.9.9.9.8.9.d.4.G w 6 9 9 0 9 7                     ",
"      ( /.sXhX/.^ R R e.e.e.e.e.e.e.r.r.r.r.r.r.r.7.5.5.5.5.7.u.u.u.u.0.8.8.8.8.8.8.9.4.G w 5 5 5 0 0 9                         ",
"    ` ( ].jXdXx.R R e.^ e.e.e.e.e.e.e.e.r.r.r.r.7.5.5.5.5.7.0.u.u.u.u.8.8.8.8.8.9.4.I x 6 > 5 5 7 9 5                           ",
"    H ( ;XhX8Xt.^ ^ ^ t.t.e.^ 6.6.6.6.r.6.r.r.7.3.3.3.5.5.7.r.0.r.0.8.8.5.8.8.5.I x 6 * > > 7 5 >                               ",
"    =.@.7XhX;X^ ^ ^ t.t.t.^ R 6.6.6.6.6.6.6.7.3.3.5.3.5.7.7.0.7.0.7.5.5.4.4.I M * % * & > > >                                   ",
"  e #.%.7XjX=X( ^ t.( ( t.^ R R R R 6.6.6.6.Y 3.3.3.3.6.7.7.7.7.7.5.5.4.I M 6 O O % * & &                                       ",
"  ` #.;.8XsX'.( ( ( ( t.t.( R R R R R 6.2.R 3.3.3.3.3.7.7.6.7.6.4.4.1.x 6 O X O @ % %                                           ",
"  ' #.B.8XjX(./ / / ( @.t.( ~ R R Y Y R R Y Y 3.Y 3.R 7.3.6.7.5.6.G 4 O . X X O O                                               ",
"  ' =.;.7XjX)./ / @.@.@.@.@.^ R T Y Y Y Y Y Y Y Y R 3.6.6.6.3.3.6.H t $ X X O                                                   ",
"  c =.%.7XdX)./ / ( ( @.@.@.( R T Y T U Y U Y Y Y 3.R 3.3.3.3.3.2.6.s.<.c 6                                                     ",
"  u =.%.-XdX).@./ @.@.@.@.@.@.~ T U Y U U Y Y Y Y Y R R 3.Y 3.3.3.3.3.5.Z.(.                                                    ",
"  - Q.+.-XdX'.+./ +.@.@.x.@.@.( ^ U U U U Y T Y R R Y Y Y 3.Y Y 3.3.3.3.3.7.z.B./.                                              ",
"  + &.+.*X8X'.+./ +.@.%.%.;.@.@.~ T U U U U U Y Y Y Y Y Y Y Y 3.Y 3.3.3.3.3.3.5.e.Z.N.                                          ",
"  + ' $.R.8X-X$.+.+.+.@.%.%.%.%.( T T U U U U T Y U Y Y Y Y Y Y Y 3.Y Y 3.3.3.3.3.6.y.c.M.                                      ",
"  X u -.:.7X-X$./ +.+.%.%.%.;.%.@./ T U U U U U U U Y U Y U Y Y Y Y Y Y 3.3.3.3.3.3.3.5.r.z.M.[.                                ",
"  X 4 &.+.-X7X-.+.+.+.+.$.%.;.%.%.@.~ T P U U U T U U U U Y Y Y Y Y Y Y Y Y Y 3.3.3.3.3.3.6.7.y.V.(.                            ",
"    = { ..R.7X^...+.$.$.$.%.%.;.;.%./ ~ T L L U U U U U Y U U Y Y Y Y Y 3.Y Y 3.3.Y 3.3.3.3.3.5.7.y.V.].                        ",
"    + y o.X.-X*X..+...+.$.%.%.;.;.;.%.( ~ L L L L U U U U U U U U Y U Y Y Y Y Y Y 3.Y 3.3.3.3.3.3.3.5.r.z.].'.                  ",
"    . t { ..R.;X-.....$.$.%.-.-.;.;.;.%./ P P L L L L U U U U U U Y U Y Y Y Y Y Y Y 3.Y Y 3.3.3.3.5.3.5.3.5.V.[.                ",
"      $ ` o.*.*X*XX.+.+.$.$.$.;.-.>.>.;.%./ P L L L L L U L U U U U U U Y U Y Y Y Y Y Y 3.3.3.3.3.3.3.3.5.5.5.7.b.Z._.          ",
"      + t [  .R.-X:.......$.%.%.;.;.:.>.>.%.+.P P L L L L U U U U U U U U Y Y U Y Y Y Y 3.Y 3.3.3.3.3.3.3.3.3.5.3.7.p.[.`.      ",
"      . $ ]  . .R.R.$...+.$.X.-.-.;.>.>.>.;.;.+.~ P L L L L L L U U U U Y U U Y Y Y Y Y Y Y Y Y 3.Y 3.3.3.3.3.3.5.7.y./.T.      ",
"        X 4 ] ..X.R.:.X...#.$.-.-.-.-.:.:.>.>.%.%.~ ~ P L L L L L U U L U U U U U U U Y Y Y Y Y Y 3.Y 3.3.3.3.7.r.p.Z.!.t       ",
"        X o y | Q -.R.-.......$.X.-.-.;.>.:.>.>.;.%...~ P L L L L L L U U U U U Y U Y U U Y Y Y Y Y Y Y Y 6.6.y.c._.`.c +       ",
"        X X * ] Q Q -.:.$.....X.X.$.-.-.;.:.>.>.>.>.-.%...~ P P L L L L L U U U U U U U Y Y Y Y Y Y 3.6.6.e.x.M._.=XY.- X       ",
"          X o @ ]  . .*.-.X...X.X.X.$.X.-.-.:.:.>.>.>.>.-.%.+.~ P P P L L L L U U U U U U U U Y Y R R t.x.M._.].=X!.- o         ",
"          o o o < D W W *.X.......X.X.X.-.-.-.;.:.:.:.>.>.:.;.%.+./ / ~ P T T T U T T T T R ^ ^ ( x.x.M./.].].=X~.u @ o         ",
"            o @ o q D  .Q X.X.X.....X.X.X.X.-.-.-.;.:.>.>.:.>.>.;.;.%.@.+./ / ( / ( ~ ( ( @.@.x.M.N./.(.].].=X~.u # o           ",
"              @ @ & q B F Q o.X.........X.X.-.-.X.-.-.;.:.;.>.:.>.>.>.>.;.;.;.%.%.%.;.B.B.N.N./.^.(.(.(.].*X~.t # @             ",
"                @ # ; q S F Q  .o..... .X.X.X.X.-.-.X.-.;.;.:.;.>.>.>.>.>.N.N.>.N.N.N.N.N.N.^.^./.(.).].W.T.y # @ o             ",
"                  & ; : 3 l F  .Q  . . .....X...X.X.X.$.-.-.-.;.-.;.;.>.:.>.>.>.>.>.>.N.N.^.^.^.^.).R.W.Y.r & # @               ",
"                    ; : , 2 l D W | Q Q  .......X.X.X.X.$.X.$.-.$.-.-.-.;.;.;.;.;.B.N.>.N.N.N.N.^.'.~.z 3 ; & @                 ",
"                      : : 1 1 s B [ W W Q Q  . .......X.X.X.X.$.$.$.$.-.%.$.;.-.-.-.;.;.;.;.>.R.W.Y.e : ; # #                   ",
"                        1 1 1 1 2 s k | Q Q Q Q Q  . . .....X.....X.+.$.$.$.$.$.%.%.%.%.;.R.&XY.e 1 : : ; #                     ",
"                          1 1 2 1 2 8 s B [ | | W Q  .| ..........X...X.+.$.+.$.$.-.;.Q.W.Y.l 3 1 1 : ;                         ",
"                              2 2 8 2 i i f l S D | | | Q ..! ..........#.#.-.,.E.&.{ ] l i 2 1 , , :                           ",
"                                2 2 2 i i i i a g k S [ [ F | | | o.o.*.} Q.&.] l l p p 2 8 2 3 1                               ",
"                                    8 8 i p a a g g h j j A A S S S S S A j h d d a p 0 8 2 2                                   ",
"                                          a a g g h j j C C C Z C Z C C j j h g d d p p 8                                       ",
"                                                  h j j C C Z Z Z Z Z C C j j g d                                               ",
"                                                            J J J J J K                                                         ",
"                                                                                                                                "
};
